<svg xmlns="http://www.w3.org/2000/svg" width="23" height="18" viewBox="0 0 23 18"><g><g><path fill="#fff" d="M4.956 12.89a.404.404 0 0 1-.393.393.41.41 0 0 1-.283-.11L.743 9.634a.41.41 0 0 1-.11-.283.41.41 0 0 1 .11-.282L4.28 5.532a.409.409 0 0 1 .283-.11c.209 0 .393.184.393.393zm17.295 4.717a.404.404 0 0 1-.393.393H.632a.404.404 0 0 1-.393-.393v-2.359c0-.209.184-.393.393-.393h21.226c.209 0 .393.184.393.393zm0-4.717a.404.404 0 0 1-.393.393H8.494a.404.404 0 0 1-.394-.393V10.53c0-.208.185-.393.394-.393h13.364c.209 0 .393.185.393.393zm0-4.717a.404.404 0 0 1-.393.393H8.494a.404.404 0 0 1-.394-.393V5.815c0-.21.185-.393.394-.393h13.364c.209 0 .393.184.393.393zm0-4.717a.404.404 0 0 1-.393.393H.632a.404.404 0 0 1-.393-.393V1.098C.24.889.423.705.632.705h21.226c.209 0 .393.184.393.393z"/></g></g></svg>