<?xml version="1.0" standalone="no"?>
<!DOCTYPE svg PUBLIC "-//W3C//DTD SVG 20010904//EN"
 "http://www.w3.org/TR/2001/REC-SVG-20010904/DTD/svg10.dtd">
<svg version="1.0" xmlns="http://www.w3.org/2000/svg"
 width="260.000000pt" height="260.000000pt" viewBox="0 0 260.000000 260.000000"
 preserveAspectRatio="xMidYMid meet">
<metadata>
Created by potrace 1.14, written by Peter Selinger 2001-2017
</metadata>
<g transform="translate(0.000000,260.000000) scale(0.100000,-0.100000)"
fill="#000000" stroke="none">
<path d="M0 1300 l0 -1300 1300 0 1300 0 0 1300 0 1300 -1300 0 -1300 0 0
-1300z m1920 965 l0 -205 -409 0 -409 0 -6 -27 c-8 -43 -40 -413 -35 -417 2
-2 40 3 84 11 104 19 343 12 435 -12 246 -64 419 -242 475 -485 22 -98 22
-288 0 -394 -70 -336 -312 -536 -709 -586 -134 -17 -411 -7 -531 18 -92 20
-199 54 -247 79 l-28 14 0 209 c0 116 2 210 4 210 2 0 32 -13 68 -29 148 -68
356 -111 528 -111 287 0 427 106 438 331 9 182 -62 290 -228 346 -79 26 -379
24 -495 -4 l-80 -19 -85 44 c-47 25 -90 50 -97 56 -9 9 -2 139 32 591 24 319
44 581 44 583 1 1 282 2 626 2 l625 0 0 -205z"/>
</g>
</svg>
